<svg xmlns="http://www.w3.org/2000/svg" version="1.1" viewBox="0 0 1000 1088.75" height="100">
  <defs>
    <style>
      
    </style>
  </defs>
  <!-- Generator: Adobe Illustrator 28.7.0, SVG Export Plug-In . SVG Version: 1.2.0 Build 136)  -->
  <g>
    <g id="Artwork">
      <g>
        <polygon class="cls-1" points="876.73 0 215.94 241.17 876.73 124.45 876.73 0"></polygon>
        <path class="cls-2" d="M321.96,543.65h120.86v-70.18h-120.86v-55.16h133.7l-44.36-76.88h-189.59v334.25h267.39v-76.88h-167.15v-55.15ZM667.07,341.44l-56.78,109.08-56.64-109.08h-110.83l116.78,202.22v132.03h99.94v-132.03l116.94-202.22h-109.41ZM778.65,1050.08c0,2.35-.16,5.32-.31,6.42h-44.77c.78,10.33,7.83,14.56,15.81,14.56,4.7,0,9.08-1.41,12.84-5.17l13.15,11.11c-6.89,8.61-17.38,11.74-26.77,11.74-21.6,0-33.97-16.59-33.97-38.35,0-23.64,14.56-38.67,32.72-38.67,19.41,0,31.31,17.06,31.31,38.35ZM733.88,1042.1h26.3c-.63-8.3-5.95-13.93-13.46-13.93-8.92,0-12.37,7.83-12.84,13.93ZM1000,1050.08c0,2.35-.16,5.32-.31,6.42h-44.77c.78,10.33,7.83,14.56,15.81,14.56,4.7,0,9.08-1.41,12.84-5.17l13.15,11.11c-6.89,8.61-17.38,11.74-26.77,11.74-21.6,0-33.97-16.59-33.97-38.35,0-23.64,14.56-38.67,32.72-38.67,19.41,0,31.31,17.06,31.31,38.35ZM955.23,1042.1h26.3c-.63-8.3-5.95-13.93-13.46-13.93-8.92,0-12.37,7.83-12.84,13.93ZM917.97,1060.88l12.21,11.58c-6.26,7.98-14.87,16.28-29.43,16.28-20.19,0-35.07-16.12-35.07-38.35,0-20.35,12.37-38.67,35.38-38.67,13.15,0,22.23,5.95,28.96,15.97l-12.52,12.68c-4.38-5.79-9.08-10.33-16.59-10.33-10.18,0-15.5,8.61-15.5,20.04,0,10.64,4.7,20.19,15.65,20.19,6.73,0,12.37-3.6,16.91-9.39ZM747.65,938.15h-18.16v-5.17c-4.07,4.54-10.64,6.73-17.22,6.73-19.1,0-26.3-13.78-26.3-33.66v-41.8h18.47v40.23c0,10.02,2.04,17.53,12.37,17.53s12.37-7.83,12.37-16.91v-40.86h18.47v73.89ZM805.26,916.55l-2.66,18.79c-3.76,2.97-10.64,4.38-15.18,4.38-11.27,0-20.04-8.45-20.04-21.92v-35.85h-10.64v-17.69h10.64v-19.25l18.47-9.39v28.65h17.53v17.69h-17.53v31c0,6.42,2.66,8.77,7.2,8.77s9.24-2.35,12.21-5.17ZM524.73,938.15h-18.47v-40.23c0-10.02-2.19-17.38-12.52-17.38s-12.68,6.73-12.68,16.91v40.7h-18.47v-93.14l18.47-9.39v33.81c4.07-4.07,9.08-6.73,17.38-6.73,19.57,0,26.3,15.03,26.3,33.81v41.64ZM854.41,1087.18h-19.1v-40.23c0-10.33-2.35-17.22-12.68-17.22-9.71,0-12.84,5.79-12.84,16.75v40.7h-19.1v-73.89h19.1v5.01c3.91-3.91,9.71-6.57,18-6.57,20.04,0,26.61,15.5,26.61,33.66v41.8ZM615.53,1006.88c6.11,0,10.96-4.85,10.96-10.96s-4.85-10.96-10.96-10.96-10.96,4.85-10.96,10.96,4.85,10.96,10.96,10.96ZM127.43,1006.88c6.11,0,10.96-4.85,10.96-10.96s-4.85-10.96-10.96-10.96-10.96,4.85-10.96,10.96,4.85,10.96,10.96,10.96ZM1000,901.05c0,2.35-.16,5.32-.31,6.42h-44.77c.78,10.33,7.83,14.56,15.81,14.56,4.7,0,9.08-1.41,12.84-5.17l13.15,11.11c-6.89,8.61-17.38,11.74-26.77,11.74-21.6,0-33.97-16.59-33.97-38.35,0-23.64,14.56-38.67,32.72-38.67,19.41,0,31.31,17.06,31.31,38.35ZM955.23,893.07h26.3c-.63-8.3-5.95-13.93-13.46-13.93-8.92,0-12.37,7.83-12.84,13.93ZM875.55,938.15h-18.16v-5.17c-4.07,4.54-10.64,6.73-17.22,6.73-19.1,0-26.3-13.78-26.3-33.66v-41.8h18.47v40.23c0,10.02,2.04,17.53,12.37,17.53s12.37-7.83,12.37-16.91v-40.86h18.47v73.89ZM598.15,901.05c0,2.35-.16,5.32-.31,6.42h-44.77c.78,10.33,7.83,14.56,15.81,14.56,4.7,0,9.08-1.41,12.84-5.17l13.15,11.11c-6.89,8.61-17.38,11.74-26.77,11.74-21.6,0-33.97-16.59-33.97-38.35,0-23.64,14.56-38.67,32.72-38.67,19.41,0,31.31,17.06,31.31,38.35ZM553.38,893.07h26.3c-.63-8.3-5.95-13.93-13.46-13.93-8.92,0-12.37,7.83-12.84,13.93ZM703.19,1087.18h-19.1v-4.85c-6.26,4.54-10.02,6.42-16.75,6.42-21.29,0-30.37-18.47-30.37-39.14,0-22.39,10.64-37.88,29.9-37.88,6.42,0,12.52,1.72,17.22,5.95v-23.64l19.1-9.55v102.69ZM684.1,1064.33v-28.18c-4.07-4.38-7.98-6.42-13.31-6.42-11.11,0-13.78,8.77-13.78,19.25,0,11.9,3.44,21.76,14.25,21.76,5.32,0,9.08-2.35,12.84-6.42ZM605.82,1013.29v73.89h19.1v-73.89h-19.1ZM594.71,987v15.34c-2.82-.94-6.57-1.41-9.39-1.41-5.48,0-7.98,1.72-7.98,6.42v5.95h15.81v17.85h-15.81v56.04h-19.1v-56.04h-10.33v-17.85h10.33v-8.92c0-13.78,8.61-19.41,22.54-19.41,4.07,0,10.02.47,13.93,2.04ZM538.51,1087.18h-19.1v-40.23c0-10.33-2.35-17.22-12.68-17.22-9.71,0-12.84,5.79-12.84,16.75v40.7h-19.1v-73.89h19.1v5.01c3.91-3.91,9.71-6.57,18-6.57,20.04,0,26.61,15.5,26.61,33.66v41.8ZM428.77,1011.73c-21.29,0-34.6,16.75-34.6,38.51,0,22.86,14.56,38.51,34.6,38.51s34.6-15.65,34.6-38.51-13.31-38.51-34.6-38.51ZM428.77,1070.28c-12.21,0-14.87-11.74-14.87-20.04,0-11.43,4.7-20.19,14.87-20.19s14.87,8.77,14.87,20.19c0,8.3-2.66,20.04-14.87,20.04ZM375.7,1060.88l12.21,11.58c-6.26,7.98-14.87,16.28-29.43,16.28-20.19,0-35.07-16.12-35.07-38.35,0-20.35,12.37-38.67,35.38-38.67,13.15,0,22.23,5.95,28.96,15.97l-12.52,12.68c-4.38-5.79-9.08-10.33-16.59-10.33-10.18,0-15.5,8.61-15.5,20.04,0,10.64,4.7,20.19,15.65,20.19,6.73,0,12.37-3.6,16.91-9.39ZM276.93,1087.18h-19.1v-40.23c0-10.33-2.35-17.22-12.68-17.22-9.71,0-12.99,5.79-12.99,16.75v40.7h-19.1v-93.14l19.1-9.55v33.81c3.6-4.38,11.11-6.57,18.47-6.57,19.41,0,26.3,15.34,26.3,33.66v41.8ZM201.31,1064.95l-2.82,19.25c-3.91,3.13-13.31,4.54-18.32,4.54-11.58,0-19.88-9.24-19.88-22.07v-35.54h-12.84v-17.85h12.84v-19.25l19.1-9.55v28.8h21.6v17.85h-21.6v30.37c0,6.73,2.5,8.92,7.04,8.92s11.58-2.35,14.87-5.48ZM117.88,1013.29v73.89h19.1v-73.89h-19.1ZM107.86,1013.29l-23.32,73.89h-17.53l-12.52-44.93-12.68,44.93h-17.53L1.1,1013.29h21.29l11.11,42.89,12.52-42.89h17.38l12.52,42.89,11.27-42.89h20.66ZM681.28,838.12v15.18c-4.23-1.1-7.04-1.57-9.55-1.57-6.57,0-7.98,2.35-7.98,6.11v6.42h12.52v17.85h-12.52v56.04h-18.47v-56.04h-9.08v-17.85h9.08v-8.92c0-12.84,6.73-19.41,22.39-19.41,5.01,0,9.08.94,13.62,2.19ZM454.13,916.55l-2.66,18.79c-3.76,2.97-10.33,4.38-14.87,4.38-11.27,0-20.04-8.45-20.04-21.92v-35.85h-12.84v-17.69h12.84v-19.25l18.47-9.39v28.65h17.22v17.69h-17.22v31c0,6.42,2.66,8.77,7.2,8.77s8.92-2.35,11.9-5.17ZM368.19,901.05c0,2.35-.16,5.32-.31,6.42h-43.21c.78,10.33,7.98,14.56,15.97,14.56,4.7,0,8.92-1.41,12.68-5.17l13.15,11.11c-6.11,8.14-17.22,11.74-27.08,11.74-21.13,0-33.66-16.59-33.66-38.2s13.62-38.82,32.87-38.82c20.66,0,29.59,18.79,29.59,38.35ZM324.98,893.07h26.3c-.78-8.3-5.64-13.93-13.62-13.93-8.45,0-12.21,7.83-12.68,13.93ZM296.96,901.37c0,18.94-7.83,38.35-28.8,38.35-8.14,0-13.15-2.97-16.44-6.11v22.54l-18.47,9.24v-101.13h18.47v5.01c4.85-4.38,9.86-6.57,16.75-6.57,19.88,0,28.49,18.79,28.49,38.67ZM277.86,902.3c0-10.8-2.82-21.76-13.93-21.76-5.17,0-9.24,2.35-12.21,6.57v28.18c2.97,4.23,7.98,6.73,13.31,6.73,10.33,0,12.84-9.39,12.84-19.72ZM220.41,938.15h-18.47v-5.17c-4.38,4.38-10.02,6.73-17.22,6.73-14.56,0-25.99-9.39-25.99-25.67s11.11-24.89,28.8-24.89c4.7,0,9.55.63,14.4,2.97v-3.91c0-6.89-4.54-9.71-12.68-9.71-5.79,0-11.27,1.41-17.06,4.85l-7.36-13.15c7.98-5.01,15.65-7.51,25.52-7.51,18.63,0,30.06,9.08,30.06,25.83v49.62ZM201.94,916.55v-9.39c-3.76-2.35-8.61-3.13-12.37-3.13-8.14,0-12.05,3.6-12.05,9.55,0,5.64,3.6,10.18,10.49,10.18,3.6,0,9.86-1.25,13.93-7.2ZM148.56,938.15h-18.47v-40.23c0-10.02-2.19-17.38-12.52-17.38s-12.68,6.73-12.68,16.91v40.7h-18.47v-93.14l18.47-9.39v33.81c4.07-4.07,9.08-6.73,17.38-6.73,19.57,0,26.3,15.03,26.3,33.81v41.64ZM76.24,908.57c0,22.23-16.91,31.15-36.94,31.15C24.89,939.72,8.92,935.18,0,922.03l13.78-12.21c6.42,7.67,15.65,11.27,25.05,11.27,11.11,0,17.53-5.01,17.53-12.05,0-2.82-1.1-5.64-5.79-7.98-3.44-1.72-7.67-2.82-15.97-4.85-5.17-1.25-15.81-3.76-22.39-9.08-6.57-5.32-8.45-12.99-8.45-19.72,0-20.82,17.85-29.27,35.38-29.27,15.18,0,26.14,6.26,34.91,15.18l-13.78,13.46c-6.42-6.42-12.68-10.02-22.39-10.02-8.3,0-14.4,2.66-14.4,9.55,0,2.97,1.1,5.01,4.07,6.73,3.44,1.88,8.3,3.29,15.81,5.17,8.92,2.35,17.22,4.38,23.95,9.86,5.95,4.85,8.92,11.27,8.92,20.51ZM936.76,867.71l-7.54,18.47c-2.82-2.66-6.11-4.54-10.64-4.54-8.77,0-10.94,7.36-10.94,16.28v40.23h-18.47v-73.89h18.47v5.17c4.23-4.23,9.55-6.73,15.5-6.73,5.17,0,9.71,1.57,13.62,5.01Z"></path>
      </g>
    </g>
  </g>
  <style>
		.cls-1 {
        fill: #ffe600;
      }

      .cls-2 {
        fill: #fff;
      }
	  </style>
</svg>